# xmcd
#
# Track frame offsets:
#	150
#	12817
#	25296
#	39663
#	54830
#	65067
#
# Disc length: 1045 seconds
#
# Revision: 1
# Processed by: cddbd v1.5.2PL0 Copyright (c) Steve Scherf et al.
# Submitted via: audiograbber 1.83.01
#
DISCID=46041306
DTITLE=Dar Scot - Welcome to Smashville
DYEAR=2003
DGENRE=
TTITLE0=Welcome to Smashville
TTITLE1=Take it Back
TTITLE2=She Looks Your Way (The Way-O Way-O Song)
TTITLE3=All At Once
TTITLE4=Money Can't Buy...
TTITLE5=Got To Get Left To Get Right
EXTD=
EXTT0=
EXTT1=
EXTT2=
EXTT3=
EXTT4=
EXTT5=
PLAYORDER=
